<?xml version="1.0" encoding="iso-8859-1"?>
<!-- Generator: Adobe Illustrator 16.0.0, SVG Export Plug-In . SVG Version: 6.00 Build 0)  -->
<!DOCTYPE svg PUBLIC "-//W3C//DTD SVG 1.1//EN" "http://www.w3.org/Graphics/SVG/1.1/DTD/svg11.dtd">
<svg fill="#E6E6E6" version="1.1" id="Capa_1" xmlns="http://www.w3.org/2000/svg" xmlns:xlink="http://www.w3.org/1999/xlink" x="0px" y="0px"
	 width="881.21px" height="881.211px" viewBox="0 0 881.21 881.211" style="enable-background:new 0 0 881.21 881.211;"
	 xml:space="preserve">
<g>
	<path d="M742.105,328.411c0-182.3-148.601-329.9-331.201-328.4c-182.9,1.6-328.5,151-325.5,333.9c1.7,100.8,48.8,190.5,121.7,249.7
		v267.6c0,16.601,13.4,30,30,30h283.601c16.6,0,30-13.399,30-30v-140.3c0,0,4.6,0,100.1,0c7.7,0,15.5-0.399,23.2-1.5
		c23.7-3.5,42.2-16.6,46.101-41.3c2.699-17.1-1.2-29.1,4.199-51.6c3.9-16.5,5.301-34.2,0.101-50.801c-4.101-13,0-36.699,0-36.699
		s87.3-28.801,68.899-62C775.105,433.812,742.105,328.411,742.105,328.411z M640.304,273.411c-9.699,16.7-25.899,35.7-45.1,41.5
		c-8.8,2.7-18.8,2.7-26.3,8c-10.5,7.5-8.8,18.9-13.8,29c-5,10.101-14.601,18.9-23.601,25.3c-17,12.101-37.8,18.4-58.399,20.801
		c-18.9,2.199-41.5-2.101-55.701-9.7c0.1,8.3,0.399,31.1-17.8,42c-13.5,8.1-29.2,29.3-30.601,72.2v211.1c0,4.5-5.5,6.7-8.6,3.4
		l-29.8-31.4c-3.101-3.3-4.801-7.6-4.801-12.1V477.411l-13.699-2.399c-8.301-1.5-16.801-1.7-25.301-1.101
		c-26.3,2.101-58.5-5.5-74.5-26.2c-7-9-10.2-20.3-14.8-30.699c-9.7-22.101-31-36.101-42.6-57.101c-26.7-48.1-9.3-103.1,14.8-148.4
		c59.4-111.9,187.3-155,307.401-137.3c25.199,3.7,50.1,10.6,73.199,21.5c26,12.3,49.4,29.7,68.9,50.7c21.8,23.6,33.2,46,32.9,78.8
		C651.905,243.011,648.004,260.312,640.304,273.411z"/>
</g>
<g>
</g>
<g>
</g>
<g>
</g>
<g>
</g>
<g>
</g>
<g>
</g>
<g>
</g>
<g>
</g>
<g>
</g>
<g>
</g>
<g>
</g>
<g>
</g>
<g>
</g>
<g>
</g>
<g>
</g>
</svg>
